<?xml version="1.0" encoding="utf-8"?>
<!-- Generator: Adobe Illustrator 24.3.0, SVG Export Plug-In . SVG Version: 6.00 Build 0)  -->
<svg version="1.0" id="katman_1" xmlns="http://www.w3.org/2000/svg" xmlns:xlink="http://www.w3.org/1999/xlink" x="0px" y="0px"
	 viewBox="0 0 841.89 595.28" style="enable-background:new 0 0 841.89 595.28;" xml:space="preserve">
<style type="text/css">
	.st0{fill-rule:evenodd;clip-rule:evenodd;}
</style>
<path class="st0" d="M140.69,294.03v-45.81h46.69c0-25.13-21.08-45.81-46.69-45.81c-25.62,0-46.69,20.68-46.69,45.81
	C93.99,273.35,115.07,294.03,140.69,294.03z M226.07,391.87v-45.81h46.69c0-25.13-21.08-45.81-46.69-45.81s-46.69,20.68-46.69,45.81
	C179.38,371.19,200.46,391.87,226.07,391.87z M226.07,292.7l48.03-88.94h-96.06L226.07,292.7z M188.72,301.59l-48.03,88.94
	l-48.03-88.94H188.72z"/>
<path d="M361.53,292.12h-33.95v-89.69h33.95c27.04,0,43.57,16.77,43.57,44.85C405.09,275.59,388.56,292.12,361.53,292.12z
	 M360.24,278.02c19.36,0,28.19-10.75,28.19-30.75c0-20-8.8-30.75-28.16-30.75h-16.03v61.51L360.24,278.02z"/>
<path d="M443.54,294.04c-21.14,0-34.6-15.25-34.6-35.24c0-19.99,13.71-35.24,34.21-35.24c17.05,0,27.17,8.97,31.4,22.3
	c1.53,5,2.17,10.51,2.17,16.14v2.58h-51.26c0.39,8.33,6.66,17.3,18.07,17.3c8.71,0,13.2-4.87,14.74-8.97h17.17
	C471.73,284.57,460.96,294.04,443.54,294.04z M460.2,252.39c-0.39-8.84-6.41-16.66-17.05-16.66c-10.25,0-16.65,7.82-17.69,16.66
	H460.2z"/>
<path d="M491.21,225.48l9.22,25.63c2.95,7.69,5.26,16.53,7.18,23.7h0.51c1.92-7.17,4.23-16.01,7.18-23.7l9.23-25.63h16.91
	l-25.63,66.63h-15.89l-25.63-66.63H491.21z"/>
<path d="M651.34,294.04c-21.14,0-34.61-15.25-34.61-35.24c0-19.99,13.71-35.24,34.21-35.24c17.05,0,27.17,8.97,31.4,22.3
	c1.53,5,2.17,10.51,2.17,16.14v2.58h-51.25c0.39,8.33,6.67,17.3,18.07,17.3c8.71,0,13.2-4.87,14.74-8.97h17.17
	C679.53,284.57,668.77,294.04,651.34,294.04z M668,252.39c-0.39-8.84-6.41-16.66-17.05-16.66c-10.25,0-16.65,7.82-17.68,16.66H668z"
	/>
<path d="M699.01,225.48l9.23,25.63c2.95,7.69,5.25,16.53,7.18,23.7h0.51c1.92-7.17,4.23-16.01,7.17-23.7l9.23-25.63h16.91
	l-25.63,66.63h-15.89l-25.61-66.63H699.01z"/>
<path d="M563.61,256.24v35.88h-16.68v-89.69h38.34c17.81,0,29.47,10.89,29.47,26.91c0,16.02-11.66,26.91-29.47,26.91H563.61z
	 M598.12,229.33c0-7.69-5.13-12.81-12.81-12.81h-21.7v25.63h21.68C592.96,242.14,598.12,237.02,598.12,229.33z"/>
<path d="M588.78,256.24l28.09,35.88h-19.68l-27.45-35.88"/>
</svg>
